<svg width="31" height="29" viewBox="0 0 31 29" fill="none" xmlns="http://www.w3.org/2000/svg">
<path id="Vector" d="M27.4976 19.3333H20.6418C20.6418 20.6152 20.1001 21.8446 19.1358 22.751C18.1715 23.6574 16.8637 24.1667 15.5 24.1667C14.1363 24.1667 12.8284 23.6574 11.8642 22.751C10.8999 21.8446 10.3582 20.6152 10.3582 19.3333H3.50236V3.22222H27.4976M27.4976 0H3.50236C1.59988 0 0.0744629 1.45 0.0744629 3.22222V25.7778C0.0744629 26.6324 0.435615 27.452 1.07847 28.0562C1.72133 28.6605 2.59322 29 3.50236 29H27.4976C28.4068 29 29.2787 28.6605 29.9215 28.0562C30.5644 27.452 30.9255 26.6324 30.9255 25.7778V3.22222C30.9255 2.36764 30.5644 1.54805 29.9215 0.943767C29.2787 0.339483 28.4068 0 27.4976 0Z" fill="white"/>
</svg>
